# xmcd
#
# Track frame offsets:
# 150
# 18197
# 37042
# 62481
# 76551
# 91706
# 114660
# 139079
# 160837
# 177228
# 201794
# 228432
#
# Disc length: 3304 seconds
#
# Revision: 3
# Processed by: cddbd v1.5.1PL2 Copyright (c) Steve Scherf et al.
# Submitted via: Audio-CD-Archiv 4.00.530
#
DISCID=8a0ce60c
DTITLE=Monokel - M.O.N.O.K.E.L.
DYEAR=1900
DGENRE=blues
TTITLE0=Monokel - Ahaha
TTITLE1=Monokel - Bla Bla Bei Nacht
TTITLE2=Monokel - Schweine nach vorn
TTITLE3=Monokel - Tut mir leid
TTITLE4=Monokel - Mundgeruch
TTITLE5=Monokel - Wolf
TTITLE6=Monokel - Mitternacht
TTITLE7=Monokel - Hosen runter
TTITLE8=Monokel - Wie die Grossen
TTITLE9=Monokel - Kein Engel
TTITLE10=Monokel - Nie wie Vater
TTITLE11=Monokel - Rettungsboot
EXTD=
EXTT0=
EXTT1=
EXTT2=
EXTT3=
EXTT4=
EXTT5=
EXTT6=
EXTT7=
EXTT8=
EXTT9=
EXTT10=
EXTT11=
PLAYORDER=
